# xmcd CD database file
#
# Track frame offsets:
#	150
#	11640
#	23587
#	32555
#	44592
#	55662
#	65847
#	75680
#	87995
#	99590
#	110265
#	121867
#	131115
#	141467
#	151537
#	161442
#	170140
#	179290
#	188160
#	200727
#	213150
#
# Disc length: 2969 seconds
#
# Revision: 0
# Processed by: cddbd v1.4PL0 Copyright (c) Steve Scherf et al.
# Submitted via: CDex 1.50
#
DISCID=1f0b9715
DTITLE=Don Gibson - Premium Masters - Sea Of Heartbreak
DYEAR=1900
DGENRE=Country
TTITLE0=Oh, Lonesome Me
TTITLE1=I Can't Stop Loving You
TTITLE2=Blue Blue Day
TTITLE3=Give Myself A Party
TTITLE4=Look Who's Blue
TTITLE5=Who Cares (For Me)
TTITLE6=Don't Tell Me Your Troubles
TTITLE7=Just One Time
TTITLE8=Sea Of Heartbreak
TTITLE9=Lonesome Number One
TTITLE10=I Can Mend Your Broken Heart
TTITLE11=Watch Where You're Going
TTITLE12=(yes) I'm Hurting
TTITLE13=Funny Familiar Forgotten Feelings
TTITLE14=Lonesome Old House
TTITLE15=Sweet Dreams - With Dottie West
TTITLE16=Head Over Heels In Love With You
TTITLE17=A Born Loser
TTITLE18=It's A Long Way From Georgia
TTITLE19=Rings Of Gold - With Dottie West
TTITLE20=Bonaparte's Retreat
EXTD=
EXTT0=
EXTT1=
EXTT2=
EXTT3=
EXTT4=
EXTT5=
EXTT6=
EXTT7=
EXTT8=
EXTT9=
EXTT10=
EXTT11=
EXTT12=
EXTT13=
EXTT14=
EXTT15=
EXTT16=
EXTT17=
EXTT18=
EXTT19=
EXTT20=
PLAYORDER=
